<svg width="32" height="32" viewBox="0 0 32 32" fill="none" xmlns="http://www.w3.org/2000/svg">
<path d="M6.66667 27.6667V15.4667L2.93333 18.3333L1.33333 16.2L16 5L21.3333 9.06667V6.33333H25.3333V12.1333L30.6667 16.2L29.0667 18.3333L25.3333 15.4667V27.6667H17.3333V19.6667H14.6667V27.6667H6.66667ZM9.33333 25H12V17H20V25H22.6667V13.4333L16 8.36667L9.33333 13.4333V25ZM13.3333 14.3667H18.6667C18.6667 13.6556 18.4 13.0722 17.8667 12.6167C17.3333 12.1611 16.7111 11.9333 16 11.9333C15.2889 11.9333 14.6667 12.1611 14.1333 12.6167C13.6 13.0722 13.3333 13.6556 13.3333 14.3667Z" fill="black"/>
</svg>
