<svg width="32" height="32" viewBox="0 0 32 32" fill="none" xmlns="http://www.w3.org/2000/svg">
<path d="M5.33334 27.3333C4.6 27.3333 3.97223 27.0722 3.45001 26.55C2.92778 26.0278 2.66667 25.4 2.66667 24.6667V20.6667H5.33334V24.6667H26.6667V8.66667H5.33334V12.6667H2.66667V8.66667C2.66667 7.93333 2.92778 7.30556 3.45001 6.78333C3.97223 6.26111 4.6 6 5.33334 6H26.6667C27.4 6 28.0278 6.26111 28.55 6.78333C29.0722 7.30556 29.3333 7.93333 29.3333 8.66667V24.6667C29.3333 25.4 29.0722 26.0278 28.55 26.55C28.0278 27.0722 27.4 27.3333 26.6667 27.3333H5.33334ZM15.3333 22.6667L13.4667 20.7333L16.2333 18H2.66667V15.3333H16.2333L13.4667 12.6L15.3333 10.6667L21.3333 16.6667L15.3333 22.6667Z" fill="black"/>
</svg>
