<svg width="77" height="105" viewBox="0 0 77 105" fill="none" xmlns="http://www.w3.org/2000/svg">
<path d="M15.5605 57.2137C15.5605 57.2137 15.1099 70.5824 27.7276 69.8314C40.3452 69.0803 47.0296 70.0567 47.0296 70.0567C47.0296 70.0567 55.3662 91.011 55.8168 91.9874C56.2674 92.9637 63.4775 91.9874 63.4775 91.9874L62.0506 83.876L68.5096 84.1013C68.5096 84.1013 61.0742 57.2137 57.5443 56.688C50.6346 55.7116 15.6356 57.1387 15.6356 57.1387L15.5605 57.2137Z" fill="#17171E"/>
<path d="M60.4733 55.1859C61.2244 53.2332 61.7501 51.2054 62.351 49.2527C63.102 46.8493 63.778 44.3708 64.4539 41.9675C64.6792 41.2915 64.9797 40.5404 65.0548 39.7894C65.205 38.2873 63.8531 38.2873 62.7265 38.2873C59.5721 38.1371 56.4177 37.9869 53.2633 37.8367C51.1603 37.7616 48.9823 37.6113 46.8794 37.5362C46.4287 37.5362 46.4287 38.2873 46.8794 38.2873C51.4608 38.5126 56.0422 38.813 60.6236 38.9633C61.2244 38.9633 61.9004 38.9632 62.5012 39.0383C63.102 39.1134 64.3037 38.8881 64.3037 39.7894C64.3037 40.4653 63.9282 41.1413 63.778 41.8172C63.102 44.1455 62.4261 46.3987 61.7501 48.7269C61.1493 50.8298 60.5485 53.0079 59.7974 55.0357C59.6472 55.4863 60.3232 55.7117 60.5485 55.2611L60.4733 55.1859Z" fill="#17171E"/>
<path d="M62.8767 85.7537C63.8531 88.082 64.9045 90.4102 65.956 92.6634C66.1062 92.9638 66.2564 93.3393 66.4067 93.6397C66.632 94.0904 67.2328 93.6397 67.0826 93.2642C66.1062 90.9359 65.0548 88.6077 64.0033 86.3545C63.8531 86.0541 63.7029 85.6786 63.5527 85.3782C63.3274 84.9275 62.7265 85.3782 62.8767 85.7537Z" fill="#17171E"/>
<path d="M62.8017 93.3392C62.8017 94.0903 63.0269 94.7663 63.2523 95.4422C63.8531 97.3198 64.7544 99.0472 65.8809 100.624C66.2565 101.15 66.632 101.601 67.0075 102.051C67.4581 102.652 67.9839 103.253 68.5847 103.779C68.5847 103.704 68.5847 103.629 68.5847 103.554H68.6598C68.6598 103.554 68.4345 103.554 68.3594 103.554C67.0075 103.328 65.6556 102.652 64.5291 101.901C62.4261 100.624 60.4734 98.897 59.1215 96.8692C58.8211 96.4937 58.2202 96.8692 58.4455 97.2447C59.7974 99.1974 61.5249 100.85 63.5527 102.202C64.9046 103.103 66.4067 103.854 67.9839 104.229C68.2843 104.229 68.81 104.455 69.1104 104.229C69.6362 103.779 68.8851 103.253 68.6598 102.953C66.8573 101.075 65.2801 98.897 64.3038 96.4937C63.9282 95.5173 63.5527 94.3907 63.5527 93.4895C63.5527 93.0388 62.8017 93.0388 62.8017 93.4895V93.3392Z" fill="#17171E"/>
<path d="M68.6598 85.5284C69.0353 86.2043 69.4859 86.8051 69.9366 87.3309C71.2134 88.9081 72.7154 90.3351 74.2175 91.6119C74.6682 91.9874 75.1188 92.3629 75.6445 92.7384C75.7947 92.8887 76.1703 93.1891 76.2454 93.1891V93.0389L76.3205 92.8887H76.1703C76.0201 92.8887 75.7947 92.8887 75.6445 92.8887C74.2926 92.8887 72.8656 92.5882 71.5888 92.1376C69.6361 91.5368 67.8336 90.4853 66.4817 88.9081C66.1813 88.5326 65.6556 89.0583 65.956 89.4339C67.2328 90.936 68.9602 91.9874 70.8378 92.6634C72.2648 93.1891 73.842 93.5646 75.4192 93.6397C75.7948 93.6397 76.3205 93.6397 76.696 93.4895C77.0716 93.3393 77.0715 92.8886 76.8462 92.5882C76.4707 92.2127 75.945 91.9874 75.5695 91.687C74.9686 91.1613 74.2927 90.7106 73.6918 90.1849C72.8657 89.4339 72.0395 88.6828 71.3635 87.8566C70.6876 87.0305 69.8615 86.1292 69.2606 85.1529C69.0353 84.7022 68.3593 85.1529 68.5846 85.5284H68.6598Z" fill="#17171E"/>
<path d="M26.0752 17.2579C26.0752 20.6376 28.4035 23.4916 31.5579 24.6182C34.7123 25.7447 38.6929 24.7684 40.946 22.1397C43.049 19.5861 43.3494 15.9811 41.4718 13.2022C39.5941 10.4233 36.0642 9.07144 32.6845 9.67228C29.0043 10.3482 26.0753 13.5026 26.0002 17.333C26.0002 17.7836 26.7512 17.7836 26.7512 17.333C26.7512 14.2537 28.8541 11.625 31.7832 10.6486C34.7123 9.67227 38.092 10.4984 40.195 12.8267C42.2979 15.155 42.4481 18.3093 40.8709 20.8629C39.2186 23.4916 35.914 24.7684 32.8347 24.2426C29.455 23.6418 26.7512 20.7878 26.7512 17.333C26.7512 16.8824 26.0002 16.8824 26.0002 17.333L26.0752 17.2579Z" fill="#17171E"/>
<path d="M29.0795 11.8503C27.4272 10.7988 26.3006 8.99632 26.3006 6.96849C26.3006 3.73897 29.0795 1.11031 32.4592 1.11031C35.8389 1.11031 38.6178 3.73897 38.6178 6.96849C38.6178 10.198 38.1672 9.44698 37.4161 10.4233C40.2701 11.5499 42.3731 14.1786 42.3731 17.333C42.3731 17.333 41.0212 17.4832 38.768 15.6056C38.768 15.6056 35.9891 19.2106 30.131 19.2857C26.601 19.2857 26.7512 18.9102 26.7512 18.9102C26.0753 16.0562 27.2018 13.5778 29.1545 11.9254L29.0795 11.8503Z" fill="#17171E"/>
<path d="M57.2438 93.3393C57.394 95.8928 57.4692 98.4464 57.6194 101C57.6194 101.376 57.6194 101.751 57.6194 102.127C57.6194 102.577 58.3704 102.577 58.3704 102.127C58.2202 99.573 58.1451 97.0194 57.9949 94.4658C57.9949 94.0903 57.9949 93.7148 57.9949 93.3393C57.9949 92.8886 57.2438 92.8886 57.2438 93.3393Z" fill="#17171E"/>
<path d="M40.3452 46.5488C40.9461 46.8492 41.5469 46.9994 42.1478 47.1497C42.8237 47.2999 43.4996 47.4501 44.1756 47.6754C45.5274 47.9758 46.8794 48.2762 48.1562 48.6518V47.9758C47.1047 48.6518 46.1283 49.3277 45.227 50.0037C44.7013 50.3792 44.2507 50.6796 43.7249 51.0551L43.1241 51.5058C42.9739 51.5809 42.8237 51.656 42.7486 51.8062C42.5984 51.8062 42.5983 51.8062 42.6735 51.9564C42.1477 51.1302 41.6971 50.3792 41.3967 49.4028C41.0963 48.4264 41.0963 47.4501 41.2465 46.4737C41.2465 45.948 40.4954 45.948 40.4203 46.4737C40.2701 47.6003 40.4203 48.6518 40.7207 49.7032C40.871 50.229 41.0963 50.7547 41.3216 51.2053C41.5469 51.656 41.8473 52.1817 42.2228 52.5572C42.6735 53.0079 43.1992 52.5573 43.5747 52.2568C44.1005 51.8813 44.7013 51.5058 45.227 51.0551C46.3536 50.3041 47.4051 49.4779 48.5317 48.6518C48.757 48.5015 48.757 48.0509 48.4565 47.9758C47.1047 47.6754 45.7528 47.375 44.476 47.0746C43.8 46.9244 43.1241 46.7742 42.5233 46.624C41.9224 46.4737 41.2465 46.3235 40.5705 46.3235C40.4203 46.3235 40.3452 46.5489 40.5705 46.624L40.3452 46.5488Z" fill="#17171E"/>
<path d="M43.1992 44.9717C45.8278 41.5919 51.4607 41.667 54.2396 44.8214C55.5915 46.3986 56.2675 48.5767 55.6666 50.6045C55.1409 52.4822 53.6388 54.0594 51.8362 54.7353C49.5831 55.4864 47.1046 54.9606 45.3772 53.3834C45.0017 53.0079 44.476 53.6087 44.8515 53.9091C46.5789 55.4112 48.9823 56.1623 51.2354 55.7117C53.4886 55.261 55.2911 53.6838 56.1923 51.656C57.0936 49.6281 56.7932 47.1497 55.5915 45.272C54.2396 43.2442 52.0616 42.0426 49.6582 41.7421C47.2549 41.4417 43.9502 42.2679 42.7485 44.5961C42.5983 44.8965 42.9738 45.197 43.1992 44.9717Z" fill="#17171E"/>
<path d="M15.5605 57.2138L19.9918 57.5893V55.7117L32.3841 55.1859C32.3841 55.1859 35.5385 41.2915 36.2144 39.5641C36.8904 37.8367 38.1672 37.8367 39.5191 37.8367C40.8709 37.8367 45.227 37.9118 45.227 37.9118C45.227 37.9118 43.4245 24.5431 40.2701 22.7405C40.2701 22.7405 37.2659 25.1439 33.2853 24.6182C28.1031 24.0173 27.1267 20.4123 27.1267 20.4123C26.601 20.4123 22.9959 22.9659 20.2171 27.9228C15.3352 36.7101 15.5605 57.2889 15.5605 57.2889V57.2138ZM25.3242 47.9007C27.2018 48.5016 29.3048 48.5767 29.8305 45.4223C30.3562 42.2679 28.1782 41.667 28.1782 41.667C32.6094 41.667 32.5343 44.6712 32.0836 49.478C31.9334 51.5058 29.9807 52.332 29.5301 51.3556C27.7275 47.5252 25.3242 47.9007 25.3242 47.9007Z" fill="url(#paint0_linear_4_188)"/>
<path d="M25.0989 41.0662C25.8499 41.0662 26.7512 41.4417 27.5023 41.7421C28.028 41.9675 28.6288 42.2679 29.0044 42.7185C29.2297 43.0189 29.3799 43.3944 29.455 43.6949C29.6052 44.5961 29.455 45.6476 29.2297 46.5488C29.1546 46.9244 29.0043 47.2999 28.8541 47.6003C28.8541 47.6754 28.8541 47.7505 28.7039 47.8256H28.5537C28.4035 47.8256 28.2533 47.9007 28.1031 47.9758C26.7512 48.1261 25.4744 47.2999 24.2727 46.6991C23.8221 46.4737 23.4465 47.1497 23.8972 47.375C25.0989 47.9759 26.3757 48.802 27.8026 48.802C28.3284 48.802 29.0044 48.7269 29.3799 48.3514C29.6052 48.051 29.7554 47.6754 29.9056 47.375C30.2811 46.3235 30.4313 45.197 30.3562 44.0704C30.3562 43.5446 30.206 43.094 29.9807 42.6434C29.6803 42.1176 29.1546 41.7421 28.6288 41.5168C27.5774 40.9159 26.3757 40.5405 25.174 40.4653C24.7233 40.4653 24.7233 41.1413 25.174 41.2164L25.0989 41.0662Z" fill="#17171E"/>
<path d="M43.8 76.2905C39.0684 77.2668 34.2617 77.8677 29.455 78.0179C25.5495 78.1681 21.569 78.0179 17.8137 77.0415C13.8331 75.99 10.6036 73.7369 8.27536 70.2821C5.94711 66.8272 4.67031 62.4711 3.61884 58.3403C-0.511936 41.5919 0.164047 23.4916 7.97497 7.86975C8.5007 6.81828 9.0264 5.76683 9.62724 4.79047C10.2281 3.8141 10.7538 2.68751 11.58 1.86135C13.758 -0.316693 16.3867 2.08667 17.5133 4.1145C19.9166 8.69591 21.1183 14.0284 21.4187 19.1355C21.4187 19.7363 22.4702 19.7363 22.3951 19.1355C22.1698 14.2537 21.0432 9.44697 19.0154 5.01577C18.1892 3.13815 17.1378 1.18541 15.1099 0.359252C13.3825 -0.391798 11.58 0.0588319 10.3783 1.48583C9.0264 3.13814 8.05006 5.16599 7.0737 7.04362C6.02223 9.07145 5.12094 11.1744 4.36989 13.2773C2.71758 17.6334 1.59104 22.1397 0.839991 26.7211C-0.587004 35.884 -0.13641 45.3472 1.74122 54.4349C3.39353 62.6213 5.7969 72.7605 14.0585 76.666C18.1892 78.6187 22.9208 78.9942 27.4271 78.9191C32.9849 78.9191 38.5427 78.2432 43.9502 76.9664C44.3258 76.8913 44.1756 76.2904 43.8 76.3655V76.2905Z" fill="#17171E"/>
<defs>
<linearGradient id="paint0_linear_4_188" x1="30.393" y1="20.4123" x2="30.393" y2="57.5893" gradientUnits="userSpaceOnUse">
<stop stop-color="#DF98FA"/>
<stop offset="1" stop-color="#9055FF"/>
</linearGradient>
</defs>
</svg>
