<svg width="314" height="375" viewBox="0 0 314 375" fill="none" xmlns="http://www.w3.org/2000/svg">
<g style="mix-blend-mode:soft-light" opacity="0.5">
<path d="M-14 143.07H92.3C92.3 143.07 84.7 119.77 71.9 123.17C59.1 126.47 59.6 129.37 59.6 129.37C59.6 129.37 55.8 109.47 38.7 112.27C21.6 115.07 17.8 128.87 17.8 128.87C17.8 128.87 6.90001 124.57 2.10001 128.87C-2.59999 133.17 -1.69998 135.47 -1.69998 135.47C-1.69998 135.47 -12.1 130.77 -14 143.07Z" fill="white"/>
</g>
<g style="mix-blend-mode:soft-light" opacity="0.8">
<path d="M267 100.216C265.8 96.8161 263.1 90.9161 258.9 89.5161C252.9 87.5161 244 94.1161 244 94.1161C244 94.1161 239.7 78.6161 225.3 78.0161C210.9 77.4161 213.5 93.8161 213.5 93.8161C213.5 93.8161 209.8 92.7161 202.3 90.4161C194.8 88.1161 192.2 95.0161 192.2 95.0161C187.5 93.3161 185.6 97.8161 185 100.216H267Z" fill="white"/>
</g>
<path d="M43.7 0C43.7 0 43.5 2.6 41 2.9C43.5 3.2 43.7 5.8 43.7 5.8C43.7 5.8 43.9 3.2 46.4 2.9C43.9 2.7 43.7 0 43.7 0Z" fill="#FFD08A"/>
<path d="M177.7 41C177.7 41 177.5 43.6 175 43.9C177.5 44.2 177.7 46.8 177.7 46.8C177.7 46.8 177.9 44.2 180.4 43.9C177.9 43.7 177.7 41 177.7 41Z" fill="#FFD08A"/>
<path d="M79.7 31C79.7 31 79.5 33.6 77 33.9C79.5 34.2 79.7 36.8 79.7 36.8C79.7 36.8 79.9 34.2 82.4 33.9C79.9 33.7 79.7 31 79.7 31Z" fill="#FFD08A"/>
<path d="M299.7 100C299.7 100 299.5 102.6 297 102.9C299.5 103.2 299.7 105.8 299.7 105.8C299.7 105.8 299.9 103.2 302.4 102.9C299.8 102.7 299.7 100 299.7 100Z" fill="#FFD08A"/>
<path d="M183.3 159.6C183.3 159.6 183.1 162.2 180.6 162.5C183.1 162.8 183.3 165.4 183.3 165.4C183.3 165.4 183.5 162.8 186 162.5C183.4 162.3 183.3 159.6 183.3 159.6Z" fill="#FFD08A"/>
<path d="M139.1 70C139.1 70 138.6 77 132 77.6C138.6 78.3 139.1 85.2 139.1 85.2C139.1 85.2 139.6 78.2 146.2 77.6C139.6 77 139.1 70 139.1 70Z" fill="#FFD08A"/>
<path d="M15.1 58.7C15.1 58.7 14.6 65.7 8 66.3C14.6 67 15.1 73.9 15.1 73.9C15.1 73.9 15.6 66.9 22.2 66.3C15.6 65.7 15.1 58.7 15.1 58.7Z" fill="#FFD08A"/>
<path d="M132.2 0C132.2 0 131.8 5.1 127 5.6C131.8 6.1 132.2 11.2 132.2 11.2C132.2 11.2 132.6 6.1 137.4 5.6C132.6 5 132.2 0 132.2 0Z" fill="#FFD08A"/>
<path d="M58.6 95C58.6 95 58.3 99.5 54 100C58.3 100.4 58.6 105 58.6 105C58.6 105 58.9 100.5 63.2 100C59 99.5 58.6 95 58.6 95Z" fill="#FFD08A"/>
<path d="M99.5 194.9C99.5 194.9 99.2 199.4 94.9 199.9C99.2 200.3 99.5 204.9 99.5 204.9C99.5 204.9 99.8 200.4 104.1 199.9C99.8 199.4 99.5 194.9 99.5 194.9Z" fill="#FFD08A"/>
<g style="mix-blend-mode:soft-light" opacity="0.5">
<path d="M237.8 168.5H344.1C344.1 168.5 336.5 145.2 323.7 148.6C310.9 151.9 311.4 154.8 311.4 154.8C311.4 154.8 307.6 134.9 290.5 137.7C273.4 140.5 269.6 154.3 269.6 154.3C269.6 154.3 258.7 150 253.9 154.3C249.2 158.6 250.1 160.9 250.1 160.9C250.1 160.9 239.7 156.2 237.8 168.5Z" fill="white"/>
</g>
<path d="M88.4795 253.066C88.4795 253.066 87.1335 287.664 124.823 285.72C162.512 283.777 182.478 286.303 182.478 286.303C182.478 286.303 207.379 340.532 208.726 343.059C210.072 345.586 231.608 343.059 231.608 343.059L227.346 322.067L246.639 322.65C246.639 322.65 224.429 253.066 213.885 251.706C193.246 249.179 88.7038 252.872 88.7038 252.872L88.4795 253.066Z" fill="#17171E"/>
<path d="M222.635 247.818C224.878 242.765 226.448 237.517 228.243 232.463C230.487 226.244 232.506 219.83 234.525 213.61C235.198 211.86 236.095 209.917 236.32 207.973C236.768 204.086 232.73 204.086 229.365 204.086C219.943 203.697 210.52 203.308 201.098 202.919C194.817 202.725 188.311 202.336 182.029 202.142C180.683 202.142 180.683 204.086 182.029 204.086C195.714 204.669 209.399 205.446 223.083 205.835C224.878 205.835 226.897 205.835 228.692 206.029C230.487 206.224 234.076 205.641 234.076 207.973C234.076 209.722 232.954 211.472 232.506 213.221C230.487 219.246 228.468 225.077 226.449 231.103C224.654 236.545 222.859 242.182 220.616 247.43C220.167 248.596 222.186 249.179 222.859 248.013L222.635 247.818Z" fill="#17171E"/>
<path d="M229.814 326.926C232.73 332.952 235.871 338.977 239.011 344.808C239.46 345.586 239.909 346.558 240.358 347.335C241.031 348.501 242.825 347.335 242.376 346.363C239.46 340.338 236.319 334.312 233.179 328.481C232.73 327.704 232.281 326.732 231.833 325.955C231.16 324.788 229.365 325.955 229.814 326.926Z" fill="#17171E"/>
<path d="M229.589 346.557C229.589 348.501 230.262 350.251 230.935 352C232.73 356.859 235.422 361.329 238.787 365.411C239.909 366.772 241.031 367.938 242.152 369.104C243.498 370.659 245.069 372.214 246.863 373.575C246.863 373.38 246.863 373.186 246.863 372.992H247.088C247.088 372.992 246.415 372.992 246.19 372.992C242.152 372.408 238.114 370.659 234.749 368.715C228.468 365.411 222.635 360.941 218.597 355.693C217.699 354.721 215.905 355.693 216.578 356.665C220.616 361.718 225.776 365.994 231.833 369.493C235.871 371.825 240.358 373.769 245.069 374.741C245.966 374.741 247.536 375.324 248.434 374.741C250.004 373.575 247.761 372.214 247.088 371.437C241.704 366.577 236.993 360.941 234.076 354.721C232.954 352.194 231.833 349.279 231.833 346.946C231.833 345.78 229.589 345.78 229.589 346.946V346.557Z" fill="#17171E"/>
<path d="M247.088 326.343C248.209 328.093 249.555 329.648 250.901 331.008C254.715 335.09 259.202 338.783 263.689 342.087C265.035 343.059 266.381 344.031 267.951 345.003C268.4 345.391 269.522 346.169 269.746 346.169V345.78L269.97 345.391H269.522C269.073 345.391 268.4 345.391 267.951 345.391C263.913 345.391 259.651 344.614 255.837 343.448C250.004 341.893 244.62 339.172 240.582 335.09C239.684 334.118 238.114 335.479 239.011 336.451C242.825 340.338 247.985 343.059 253.593 344.808C257.856 346.169 262.567 347.141 267.278 347.335C268.4 347.335 269.97 347.335 271.092 346.946C272.214 346.558 272.214 345.391 271.541 344.614C270.419 343.642 268.849 343.059 267.727 342.282C265.932 340.921 263.913 339.755 262.118 338.394C259.651 336.451 257.183 334.507 255.164 332.369C253.145 330.231 250.677 327.898 248.882 325.371C248.209 324.205 246.19 325.371 246.863 326.343H247.088Z" fill="#17171E"/>
<path d="M119.887 149.663C119.887 158.409 126.842 165.795 136.264 168.711C145.686 171.626 157.576 169.099 164.306 162.296C170.588 155.688 171.485 146.358 165.877 139.167C160.268 131.975 149.724 128.476 139.629 130.031C128.636 131.781 119.887 139.944 119.663 149.857C119.663 151.023 121.906 151.023 121.906 149.857C121.906 141.888 128.188 135.085 136.937 132.558C145.686 130.031 155.781 132.169 162.063 138.195C168.344 144.22 168.793 152.384 164.082 158.992C159.147 165.795 149.276 169.099 140.078 167.739C129.982 166.184 121.906 158.798 121.906 149.857C121.906 148.691 119.663 148.691 119.663 149.857L119.887 149.663Z" fill="#17171E"/>
<path d="M128.861 135.668C123.925 132.947 120.56 128.282 120.56 123.034C120.56 114.676 128.861 107.873 138.956 107.873C149.051 107.873 157.352 114.676 157.352 123.034C157.352 131.392 156.006 129.448 153.762 131.975C162.287 134.891 168.569 141.694 168.569 149.857C168.569 149.857 164.531 150.246 157.801 145.386C157.801 145.386 149.5 154.716 132.002 154.911C121.458 154.911 121.906 153.939 121.906 153.939C119.887 146.553 123.252 140.139 129.085 135.862L128.861 135.668Z" fill="#17171E"/>
<path d="M212.988 346.558C213.437 353.166 213.661 359.775 214.11 366.383C214.11 367.355 214.11 368.327 214.11 369.299C214.11 370.465 216.353 370.465 216.353 369.299C215.904 362.69 215.68 356.082 215.231 349.473C215.231 348.501 215.231 347.529 215.231 346.558C215.231 345.391 212.988 345.391 212.988 346.558Z" fill="#17171E"/>
<path d="M162.512 225.466C164.306 226.244 166.101 226.632 167.896 227.021C169.915 227.41 171.934 227.799 173.953 228.382C177.991 229.159 182.029 229.937 185.843 230.908V229.159C182.702 230.909 179.786 232.658 177.094 234.407C175.523 235.379 174.177 236.156 172.607 237.128L170.812 238.295C170.364 238.489 169.915 238.683 169.691 239.072C169.242 239.072 169.242 239.072 169.466 239.461C167.896 237.323 166.55 235.379 165.652 232.852C164.755 230.325 164.755 227.799 165.204 225.272C165.204 223.911 162.96 223.911 162.736 225.272C162.287 228.187 162.736 230.908 163.633 233.63C164.082 234.99 164.755 236.351 165.428 237.517C166.101 238.683 166.998 240.044 168.12 241.016C169.466 242.182 171.037 241.016 172.158 240.238C173.729 239.266 175.523 238.294 177.094 237.128C180.459 235.185 183.6 233.046 186.965 230.908C187.638 230.52 187.638 229.354 186.74 229.159C182.702 228.382 178.664 227.604 174.85 226.827C172.831 226.438 170.812 226.049 169.018 225.661C167.223 225.272 165.204 224.883 163.185 224.883C162.736 224.883 162.512 225.466 163.185 225.661L162.512 225.466Z" fill="#17171E"/>
<path d="M171.036 221.384C178.888 212.638 195.714 212.832 204.014 220.996C208.053 225.077 210.072 230.714 208.277 235.962C206.707 240.821 202.22 244.903 196.836 246.652C190.105 248.596 182.702 247.235 177.542 243.154C176.421 242.182 174.85 243.737 175.972 244.514C181.132 248.402 188.311 250.345 195.041 249.179C201.771 248.013 207.155 243.931 209.847 238.683C212.539 233.435 211.642 227.021 208.052 222.162C204.014 216.914 197.509 213.804 190.33 213.027C183.151 212.249 173.28 214.387 169.69 220.413C169.242 221.19 170.363 221.968 171.036 221.384Z" fill="#17171E"/>
<path d="M88.4796 253.066L101.716 254.038V249.179L138.732 247.819C138.732 247.819 148.154 211.86 150.173 207.39C152.192 202.919 156.006 202.919 160.044 202.919C164.082 202.919 177.094 203.114 177.094 203.114C177.094 203.114 171.71 168.516 162.287 163.851C162.287 163.851 153.314 170.071 141.424 168.711C125.944 167.156 123.028 157.826 123.028 157.826C121.458 157.826 110.689 164.435 102.389 177.263C87.8066 200.004 88.4796 253.261 88.4796 253.261V253.066ZM117.644 228.965C123.252 230.52 129.534 230.714 131.104 222.551C132.675 214.387 126.169 212.832 126.169 212.832C139.405 212.832 139.18 220.607 137.834 233.047C137.386 238.295 131.553 240.433 130.207 237.906C124.823 227.993 117.644 228.965 117.644 228.965Z" fill="url(#paint0_linear_0_1)"/>
<path d="M116.971 211.277C119.214 211.277 121.906 212.249 124.15 213.027C125.72 213.61 127.515 214.387 128.636 215.553C129.309 216.331 129.758 217.303 129.982 218.08C130.431 220.413 129.982 223.134 129.309 225.466C129.085 226.438 128.636 227.41 128.188 228.187C128.188 228.382 128.188 228.576 127.739 228.77H127.29C126.842 228.77 126.393 228.965 125.944 229.159C121.906 229.548 118.092 227.41 114.503 225.855C113.157 225.272 112.035 227.021 113.381 227.604C116.971 229.159 120.784 231.297 125.047 231.297C126.617 231.297 128.636 231.103 129.758 230.131C130.431 229.354 130.88 228.382 131.328 227.604C132.45 224.883 132.899 221.968 132.674 219.052C132.674 217.691 132.226 216.525 131.553 215.359C130.655 213.998 129.085 213.027 127.515 212.443C124.374 210.888 120.784 209.917 117.195 209.722C115.849 209.722 115.849 211.472 117.195 211.666L116.971 211.277Z" fill="#17171E"/>
<path d="M172.831 302.436C158.698 304.963 144.34 306.518 129.982 306.906C118.317 307.295 106.427 306.907 95.2098 304.38C83.3198 301.659 73.6731 295.828 66.7186 286.887C59.7641 277.946 55.9503 266.672 52.8095 255.982C40.4708 212.638 42.49 165.795 65.8213 125.367C67.3917 122.645 68.962 119.924 70.7567 117.397C72.5514 114.871 74.1219 111.955 76.5896 109.817C83.0955 104.18 90.9473 110.4 94.3124 115.648C101.491 127.505 105.081 141.305 105.978 154.522C105.978 156.077 109.119 156.077 108.894 154.522C108.221 141.888 104.856 129.448 98.7992 117.981C96.3314 113.121 93.1908 108.068 87.1336 105.93C81.9738 103.986 76.5895 105.152 73.0001 108.845C68.962 113.121 66.0456 118.369 63.1292 123.229C59.9885 128.476 57.2963 133.919 55.0529 139.361C50.1174 150.634 46.7525 162.297 44.5091 174.153C40.2466 197.866 41.5925 222.356 47.201 245.875C52.1365 267.061 59.3154 293.301 83.9928 303.408C96.3315 308.461 110.465 309.433 123.925 309.239C140.526 309.239 157.128 307.49 173.28 304.185C174.402 303.991 173.953 302.436 172.831 302.63V302.436Z" fill="#17171E"/>
<defs>
<linearGradient id="paint0_linear_0_1" x1="132.784" y1="157.826" x2="132.784" y2="254.038" gradientUnits="userSpaceOnUse">
<stop stop-color="#DF98FA"/>
<stop offset="1" stop-color="#9055FF"/>
</linearGradient>
</defs>
</svg>
